<svg width="220" height="48" viewBox="0 0 220 48" fill="none" xmlns="http://www.w3.org/2000/svg">
  <path d="M8 13 C8 9 11 7 15 7 L29 7 C31 7 32 8.5 32 10 C32 11.5 31 13 29 13 L16 13 C14 13 13 14 13 16 L13 26 C13 33 8 35 4 33.5"
        stroke="#4F46E5" stroke-width="4.5" stroke-linecap="round" fill="none"/>
  <path d="M13 21 L24 21 C26 21 27.5 22.5 27.5 24.5 C27.5 26.5 26 28 24 28 L19 28 C16 28 14.5 29.5 14.5 32"
        stroke="#4F46E5" stroke-width="4.5" stroke-linecap="round" fill="none" opacity="0.45"/>
  <text x="42" y="32" font-family="'Instrument Sans', ui-sans-serif, system-ui, sans-serif"
        font-size="24" font-weight="700" letter-spacing="-0.5" fill="#111827">FlowFlex</text>
</svg>
